<svg width="70" height="28,2" viewBox="0 0 92 37" fill="none" xmlns="http://www.w3.org/2000/svg">
<path d="M70.9489 1.61754C71.4 1.81655 71.7025 2.22546 71.9593 2.63305C72.0961 2.83122 72.1374 2.87287 72.3593 2.95138C72.5584 2.97103 72.7574 2.97317 72.9573 2.97719C73.6197 3.00337 74.0971 3.13467 74.596 3.59074C74.9141 3.95261 75.055 4.38552 75.048 4.8614C75.0474 4.91641 75.0467 4.97142 75.0461 5.0281C75.0449 5.09038 75.0449 5.09038 75.0437 5.15393C75.1118 5.13121 75.18 5.1085 75.2502 5.0851C75.591 5.06645 75.9327 5.06817 76.274 5.06789C76.3238 5.06784 76.3735 5.0678 76.4248 5.06775C78.1675 5.07033 79.8217 5.41581 81.4448 6.04871C81.4887 6.06551 81.5326 6.08231 81.5779 6.09962C82.1889 6.33699 82.7551 6.63824 83.3204 6.9693C83.3862 7.00778 83.452 7.04626 83.5198 7.08591C83.7922 7.24905 84.0537 7.40695 84.2873 7.62318C84.5934 7.90628 84.8094 8.05983 85.2313 8.06224C85.4948 8.05181 85.7567 8.02921 86.0193 8.00524C87.711 7.85327 89.3821 8.57555 90.668 9.62784C90.7169 9.66546 90.7657 9.70308 90.8161 9.74184C91.1515 10.0084 91.3927 10.2701 91.4488 10.7071C91.461 11.083 91.4432 11.3783 91.2186 11.6927C90.8816 12.0339 90.5973 12.108 90.1302 12.1788C89.6983 12.2472 89.3281 12.3383 88.9339 12.532C88.8096 12.5875 88.8096 12.5875 88.6719 12.5875C88.7232 12.6914 88.7232 12.6914 88.7754 12.7975C89.2763 13.8274 89.6697 14.8521 89.9324 15.9688C89.9491 16.0392 89.9657 16.1096 89.9829 16.1822C90.2067 17.1844 90.2816 18.1836 90.2765 19.208C90.2764 19.2601 90.2763 19.3122 90.2762 19.3659C90.2727 20.354 90.2162 21.3269 89.9614 22.2863C89.7547 23.0665 89.7547 23.0665 90.0189 23.8223C90.2655 24.3006 90.2796 24.7808 90.2765 25.3081C90.2762 25.375 90.2758 25.442 90.2755 25.511C90.2663 26.0732 90.235 26.6074 89.8936 27.0761C89.5725 27.3681 89.2519 27.4959 88.8133 27.4797C88.476 27.42 88.1954 27.2288 87.9148 27.0417C87.455 27.5683 86.9974 28.0954 86.5586 28.6398C86.4439 28.7788 86.3279 28.9142 86.208 29.0485C84.6914 30.7543 83.8683 32.591 83.774 34.8805C83.7492 35.4688 83.6784 35.9677 83.239 36.3939C82.6945 36.822 82.197 36.8759 81.5137 36.8155C80.9618 36.6762 80.6231 36.2158 80.3263 35.7572C80.2131 35.5622 80.2131 35.5622 79.9994 35.4389C79.8633 35.4182 79.8633 35.4182 79.7149 35.4201C79.6321 35.4182 79.6321 35.4182 79.5476 35.4164C79.4895 35.4153 79.4313 35.4142 79.3713 35.4131C78.8906 35.3952 78.4804 35.3743 78.0722 35.0947C78.0281 35.0648 77.984 35.0349 77.9386 35.0041C77.5569 34.7117 77.3385 34.3268 77.2462 33.8558C77.2417 33.7469 77.2403 33.6378 77.2419 33.5289C77.2425 33.4739 77.2432 33.4188 77.2438 33.3622C77.245 33.2999 77.245 33.2999 77.2462 33.2363C77.1781 33.2591 77.1099 33.2818 77.0397 33.3052C75.1792 33.4201 73.3731 33.2048 71.6022 32.6169C71.5524 32.6004 71.5026 32.5839 71.4513 32.5669C70.7361 32.3248 70.0652 32.0084 69.3997 31.6533C69.3583 31.6315 69.317 31.6096 69.2744 31.5872C68.8872 31.3811 68.5179 31.1744 68.1779 30.8972C67.6291 30.427 67.6291 30.427 66.9347 30.3326C66.7924 30.3578 66.6504 30.3849 66.5088 30.4143C64.7247 30.5442 62.9858 29.8785 61.6219 28.7624C61.5731 28.7248 61.5242 28.6872 61.4738 28.6484C61.1384 28.3818 60.8972 28.1202 60.8412 27.6832C60.8289 27.3073 60.8467 27.012 61.0713 26.6975C61.4083 26.3563 61.6927 26.2822 62.1597 26.2114C62.5916 26.1431 62.9618 26.052 63.356 25.8583C63.4803 25.8028 63.4803 25.8028 63.618 25.8028C63.5789 25.7251 63.5397 25.6475 63.4994 25.5675C62.9745 24.506 62.5928 23.4284 62.3231 22.2753C62.3097 22.2184 62.2963 22.1616 62.2825 22.1031C62.07 21.1381 62.0086 20.1673 62.0134 19.1822C62.0135 19.1301 62.0136 19.0781 62.0137 19.0244C62.0172 18.0362 62.0737 17.0633 62.3285 16.104C62.5352 15.3238 62.5352 15.3238 62.271 14.568C62.0244 14.0896 62.0103 13.6095 62.0134 13.0822C62.0137 13.0152 62.0141 12.9482 62.0144 12.8792C62.0236 12.3171 62.0549 11.7828 62.3963 11.3142C62.7174 11.0222 63.038 10.8944 63.4766 10.9106C63.8139 10.9702 64.0945 11.1615 64.3751 11.3486C64.8347 10.8222 65.292 10.2953 65.7307 9.75125C65.8474 9.60989 65.9653 9.47168 66.0867 9.33451C67.6174 7.60109 68.4034 5.76636 68.5013 3.44556C68.5372 2.86981 68.671 2.31982 69.1201 1.92324C69.6947 1.53626 70.267 1.44867 70.9489 1.61754Z" fill="#3E50B3"/>
<path d="M70.3332 2.7363C70.6841 2.85116 70.7823 3.05251 70.9655 3.36006C71.2582 3.75841 71.6759 4.05022 72.1528 4.19032C72.4309 4.22103 72.7095 4.21711 72.989 4.21452C73.2887 4.22024 73.4226 4.23095 73.6703 4.41455C73.8052 4.60399 73.8518 4.68478 73.8478 4.91303C73.8487 4.96342 73.8495 5.01382 73.8505 5.06574C73.7809 5.30478 73.6498 5.4086 73.4606 5.56691C73.235 5.68413 73.235 5.68413 72.9831 5.7906C72.0785 6.19275 71.3375 6.72734 70.6386 7.4253C70.5784 7.48475 70.5181 7.5442 70.456 7.60544C69.1802 8.93046 68.5329 10.7515 68.564 12.5741C68.6205 14.566 69.5022 16.4171 70.9317 17.7909C72.2876 18.9788 73.9155 19.6462 75.7189 19.6964C77.8114 19.7558 79.4663 20.299 80.963 21.8107C82.0379 22.9733 82.6882 24.5586 82.6345 26.1461C82.5527 27.5613 81.9761 28.9486 81.0318 30.0014C80.9759 30.0637 80.9201 30.1261 80.8625 30.1904C79.9595 31.1449 78.8574 31.6786 77.5904 31.9974C77.5222 32.016 77.5222 32.016 77.4526 32.035C77.0105 32.147 76.5823 32.1589 76.1277 32.1566C76.0492 32.1562 75.9706 32.1559 75.8896 32.1556C72.5572 32.1103 69.5067 30.7266 67.1105 28.4549C66.8164 28.1671 66.8164 28.1671 66.44 28.0483C66.2032 28.0779 66.1094 28.0945 65.9582 28.2806C65.9141 28.6707 65.9472 28.8443 66.1647 29.1754C64.8373 29.2946 63.5139 28.7427 62.5052 27.905C62.4635 27.87 62.4219 27.8349 62.3791 27.7988C62.3282 27.7631 62.2774 27.7273 62.225 27.6905C62.185 27.6581 62.145 27.6257 62.1037 27.5923C62.1037 27.5469 62.1037 27.5015 62.1037 27.4547C62.1827 27.447 62.1827 27.447 62.2632 27.4391C62.8243 27.3702 63.2954 27.2178 63.8097 26.9963C63.9779 26.9262 64.1288 26.8711 64.3063 26.8352C64.3297 26.87 64.3531 26.9048 64.3773 26.9406C64.573 27.211 64.573 27.211 64.862 27.3563C65.0614 27.3614 65.2285 27.3377 65.4076 27.2482C65.5185 27.0263 65.5079 26.8005 65.4764 26.5599C65.391 26.3828 65.3099 26.2384 65.2011 26.0781C65.1436 25.9877 65.0864 25.8971 65.0295 25.8063C65.0005 25.7602 64.9716 25.7141 64.9417 25.6666C63.3341 23.027 62.75 19.5701 63.4483 16.5586C63.5057 16.3408 63.5692 16.1247 63.6314 15.9083C63.7862 15.2841 63.7058 14.807 63.4314 14.2316C63.244 13.8119 63.184 13.4401 63.1921 12.9876C63.1922 12.9395 63.1922 12.8915 63.1922 12.842C63.1942 12.6103 63.2023 12.396 63.2738 12.1745C63.4879 12.2548 63.6847 12.3487 63.8847 12.4585C64.1539 12.5926 64.3464 12.6309 64.6504 12.5875C65.0978 12.4287 65.3513 12.1778 65.6313 11.8046C65.7089 11.705 65.7867 11.6055 65.8646 11.5061C65.9033 11.4564 65.9419 11.4066 65.9817 11.3554C66.1511 11.141 66.3294 10.9351 66.5088 10.7291C68.3421 8.60301 69.5596 6.58867 69.6714 3.7151C69.7091 3.0751 69.7091 3.0751 69.9057 2.86347C70.088 2.7449 70.088 2.7449 70.3332 2.7363Z" fill="#FD5621"/>
<path d="M70.9489 1.61754C71.4 1.81655 71.7025 2.22546 71.9593 2.63305C72.0961 2.83122 72.1374 2.87287 72.3593 2.95138C72.5584 2.97103 72.7574 2.97317 72.9573 2.97719C73.6197 3.00337 74.0971 3.13467 74.596 3.59074C74.9141 3.95261 75.055 4.38552 75.048 4.8614C75.0474 4.91641 75.0467 4.97142 75.0461 5.0281C75.0449 5.09038 75.0449 5.09038 75.0437 5.15393C75.1118 5.13121 75.18 5.1085 75.2502 5.0851C75.591 5.06645 75.9327 5.06817 76.274 5.06789C76.3238 5.06784 76.3735 5.0678 76.4248 5.06775C78.1675 5.07033 79.8217 5.41581 81.4448 6.04871C81.4887 6.06551 81.5326 6.08231 81.5779 6.09962C82.1889 6.33699 82.7551 6.63824 83.3204 6.9693C83.3862 7.00778 83.452 7.04626 83.5198 7.08591C83.7922 7.24905 84.0537 7.40695 84.2873 7.62318C84.5934 7.90628 84.8094 8.05983 85.2313 8.06224C85.4948 8.05181 85.7567 8.02921 86.0193 8.00524C87.711 7.85327 89.3821 8.57555 90.668 9.62784C90.7169 9.66546 90.7657 9.70308 90.8161 9.74184C91.1515 10.0084 91.3927 10.2701 91.4488 10.7071C91.461 11.083 91.4432 11.3783 91.2186 11.6927C90.8816 12.0339 90.5973 12.108 90.1302 12.1788C89.6983 12.2472 89.3281 12.3383 88.9339 12.532C88.8096 12.5875 88.8096 12.5875 88.6719 12.5875C88.7232 12.6914 88.7232 12.6914 88.7754 12.7975C89.2763 13.8274 89.6697 14.8521 89.9324 15.9688C89.9491 16.0392 89.9657 16.1096 89.9829 16.1822C90.2067 17.1844 90.2816 18.1836 90.2765 19.208C90.2764 19.2601 90.2763 19.3122 90.2762 19.3659C90.2727 20.354 90.2162 21.3269 89.9614 22.2863C89.7547 23.0665 89.7547 23.0665 90.0189 23.8223C90.2655 24.3006 90.2796 24.7808 90.2765 25.3081C90.2762 25.375 90.2758 25.442 90.2755 25.511C90.2663 26.0732 90.235 26.6074 89.8936 27.0761C89.5725 27.3681 89.2519 27.4959 88.8133 27.4797C88.476 27.42 88.1954 27.2288 87.9148 27.0417C87.455 27.5683 86.9974 28.0954 86.5586 28.6398C86.4439 28.7788 86.3279 28.9142 86.208 29.0485C84.6914 30.7543 83.8683 32.591 83.774 34.8805C83.7492 35.4688 83.6784 35.9677 83.239 36.3939C82.6945 36.822 82.197 36.8759 81.5137 36.8155C80.9618 36.6762 80.6231 36.2158 80.3263 35.7572C80.2131 35.5622 80.2131 35.5622 79.9994 35.4389C79.8633 35.4182 79.8633 35.4182 79.7149 35.4201C79.6321 35.4182 79.6321 35.4182 79.5476 35.4164C79.4895 35.4153 79.4313 35.4142 79.3713 35.4131C78.8906 35.3952 78.4804 35.3743 78.0722 35.0947C78.0281 35.0648 77.984 35.0349 77.9386 35.0041C77.5569 34.7117 77.3385 34.3268 77.2462 33.8558C77.2417 33.7469 77.2403 33.6378 77.2419 33.5289C77.2425 33.4739 77.2432 33.4188 77.2438 33.3622C77.245 33.2999 77.245 33.2999 77.2462 33.2363C77.1781 33.2591 77.1099 33.2818 77.0397 33.3052C75.1792 33.4201 73.3731 33.2048 71.6022 32.6169C71.5524 32.6004 71.5026 32.5839 71.4513 32.5669C70.7361 32.3248 70.0652 32.0084 69.3997 31.6533C69.3583 31.6315 69.317 31.6096 69.2744 31.5872C68.8872 31.3811 68.5179 31.1744 68.1779 30.8972C67.6291 30.427 67.6291 30.427 66.9347 30.3326C66.7924 30.3578 66.6504 30.3849 66.5088 30.4143C64.7247 30.5442 62.9858 29.8785 61.6219 28.7624C61.5731 28.7248 61.5242 28.6872 61.4738 28.6484C61.1384 28.3818 60.8972 28.1202 60.8412 27.6832C60.8289 27.3073 60.8467 27.012 61.0713 26.6975C61.4083 26.3563 61.6927 26.2822 62.1597 26.2114C62.5916 26.1431 62.9618 26.052 63.356 25.8583C63.4803 25.8028 63.4803 25.8028 63.618 25.8028C63.5789 25.7251 63.5397 25.6475 63.4994 25.5675C62.9745 24.506 62.5928 23.4284 62.3231 22.2753C62.3097 22.2184 62.2963 22.1616 62.2825 22.1031C62.07 21.1381 62.0086 20.1673 62.0134 19.1822C62.0135 19.1301 62.0136 19.0781 62.0137 19.0244C62.0172 18.0362 62.0737 17.0633 62.3285 16.104C62.5352 15.3238 62.5352 15.3238 62.271 14.568C62.0244 14.0896 62.0103 13.6095 62.0134 13.0822C62.0137 13.0152 62.0141 12.9482 62.0144 12.8792C62.0236 12.3171 62.0549 11.7828 62.3963 11.3142C62.7174 11.0222 63.038 10.8944 63.4766 10.9106C63.8139 10.9702 64.0945 11.1615 64.3751 11.3486C64.8347 10.8222 65.292 10.2953 65.7307 9.75125C65.8474 9.60989 65.9653 9.47168 66.0867 9.33451C67.6174 7.60109 68.4034 5.76636 68.5013 3.44556C68.5372 2.86981 68.671 2.31982 69.1201 1.92324C69.6947 1.53626 70.267 1.44867 70.9489 1.61754ZM69.8187 2.96209C69.6515 3.24552 69.6817 3.59885 69.6707 3.9193C69.5473 6.06218 68.8477 7.90264 67.4724 9.55901C67.4269 9.61393 67.4269 9.61393 67.3805 9.66995C67.1611 9.93326 66.9385 10.1938 66.7153 10.4538C66.5889 10.6013 66.4627 10.749 66.3368 10.8969C66.2901 10.9513 66.2901 10.9513 66.2426 11.0068C66.0758 11.2033 65.9157 11.4027 65.7617 11.6094C65.0848 12.5151 65.0848 12.5151 64.4181 12.6262C64.1189 12.5798 63.8984 12.4694 63.6341 12.3254C63.4759 12.2355 63.4759 12.2355 63.2739 12.1745C63.0209 12.9935 63.2333 13.8217 63.5492 14.5836C63.5751 14.631 63.601 14.6785 63.6277 14.7274C63.8249 15.1658 63.6911 15.7101 63.5621 16.1494C63.1105 17.7275 63.0451 19.5099 63.3427 21.1224C63.3569 21.2043 63.3711 21.2861 63.3857 21.3705C63.4345 21.6334 63.4892 21.8943 63.5492 22.1548C63.5597 22.2008 63.5702 22.2468 63.581 22.2941C63.9417 23.8225 64.607 25.2558 65.4764 26.5599C65.5137 26.8001 65.5172 27.0289 65.4076 27.2482C65.1778 27.3631 64.9636 27.3842 64.7193 27.317C64.5522 27.1756 64.4282 27.0163 64.3063 26.8352C64.0233 26.9263 63.7505 27.0311 63.476 27.1449C63.0246 27.3212 62.584 27.402 62.1038 27.4547C62.1038 27.5001 62.1038 27.5455 62.1038 27.5923C63.05 28.5212 64.4806 29.1867 65.8076 29.1883C65.9267 29.1851 66.0457 29.1812 66.1647 29.1754C66.1312 29.1245 66.0978 29.0735 66.0633 29.0211C65.9103 28.7447 65.9229 28.5933 65.9582 28.2806C66.1015 28.1042 66.2031 28.0811 66.4228 28.0311C66.7685 28.0976 66.9498 28.3155 67.1971 28.5559C69.7409 30.9689 73.0429 32.216 76.5394 32.1569C77.1004 32.1367 77.6085 32.0322 78.141 31.8598C78.2189 31.8348 78.2968 31.8099 78.3771 31.7842C79.3474 31.441 80.1081 30.9333 80.8254 30.2078C80.8813 30.1526 80.9373 30.0973 80.995 30.0403C81.6491 29.3594 82.036 28.5462 82.3396 27.6612C82.3637 27.5921 82.3879 27.5231 82.4127 27.452C82.8804 25.975 82.5837 24.463 81.8882 23.1173C81.6083 22.6132 81.2756 22.1733 80.8942 21.7418C80.8562 21.6981 80.8182 21.6543 80.7791 21.6093C79.6123 20.3529 77.8572 19.7764 76.1874 19.7143C76.0357 19.7095 75.8841 19.7046 75.7325 19.6998C73.5958 19.6296 71.8226 18.7481 70.359 17.1862C69.3666 16.0298 68.6054 14.4031 68.5737 12.8628C68.5703 12.7796 68.5668 12.6964 68.5632 12.6106C68.504 10.6707 69.2636 8.90171 70.5593 7.4831C71.2449 6.7563 72.0325 6.25702 72.9288 5.83012C73.4287 5.60383 73.4287 5.60383 73.8048 5.22276C73.8342 5.07761 73.8342 5.07761 73.8349 4.92163C73.8376 4.86999 73.8404 4.81835 73.8432 4.76515C73.7823 4.5088 73.671 4.41409 73.4606 4.25914C73.2521 4.2183 73.0486 4.22464 72.8368 4.22903C72.195 4.21836 71.685 4.10264 71.1949 3.65742C71.029 3.4731 70.9 3.2745 70.7634 3.06753C70.6464 2.86889 70.6464 2.86889 70.4321 2.74489C70.1583 2.69446 70.0104 2.76052 69.8187 2.96209ZM71.7399 7.9071C71.6516 7.98563 71.6516 7.98563 71.5616 8.06573C70.4609 9.1003 69.75 10.6304 69.661 12.1358C69.6371 13.9562 70.3434 15.5414 71.5807 16.8592C72.7207 17.9615 74.2197 18.5761 75.7922 18.6058C78.1598 18.6789 80.0934 19.3638 81.7949 21.0589C82.8629 22.1987 83.6805 23.8798 83.7162 25.4586C83.7197 25.5402 83.7231 25.6219 83.7267 25.706C83.782 27.5059 83.1458 29.3532 81.9266 30.6897C81.8793 30.7419 81.8793 30.7419 81.831 30.7953C81.0353 31.6631 80.1437 32.2019 79.0759 32.6935C78.7096 32.8568 78.7096 32.8568 78.4852 33.1675C78.4496 33.3825 78.4308 33.5751 78.4852 33.787C78.6186 33.9871 78.6186 33.9871 78.8293 34.1311C79.0273 34.1605 79.1914 34.1724 79.3885 34.1698C80.0457 34.186 80.6304 34.2949 81.126 34.7605C81.3494 35.0145 81.5328 35.2956 81.7201 35.5765C81.7954 35.6657 81.7954 35.6657 81.9783 35.6712C82.2086 35.6628 82.2086 35.6628 82.3856 35.515C82.6118 35.2137 82.5885 34.9755 82.5848 34.6086C82.6357 31.8252 84.0011 29.7275 85.7757 27.6985C86.1952 27.2178 86.596 26.7231 86.9716 26.2071C87.1698 25.989 87.3485 25.8847 87.6406 25.8393C88.1672 25.8342 88.5175 25.9049 88.9472 26.2157C89.2114 25.5107 89.115 24.7838 88.8784 24.082C88.8298 23.9766 88.7797 23.8719 88.7278 23.768C88.4615 23.1921 88.6078 22.6514 88.7653 22.062C89.3691 19.7458 89.1953 17.2418 88.3966 14.9965C88.3767 14.9404 88.3569 14.8842 88.3364 14.8263C87.9823 13.8446 87.5345 12.8708 86.9305 12.0156C86.7574 11.7415 86.777 11.5978 86.8135 11.2797C86.8824 11.1421 86.8824 11.1421 87.02 11.0733C87.365 11.0167 87.365 11.0167 87.5706 11.0733C87.7378 11.2147 87.8617 11.374 87.9836 11.5551C88.1993 11.4883 88.3974 11.417 88.5988 11.3142C89.123 11.0574 89.6816 11.0104 90.255 10.9356C89.2823 9.94943 87.9708 9.26001 86.5621 9.20814C86.4843 9.20934 86.4843 9.20934 86.4048 9.21056C86.3251 9.21149 86.3251 9.21149 86.2438 9.21244C86.2047 9.21324 86.1655 9.21404 86.1252 9.21486C86.1593 9.24893 86.1934 9.283 86.2285 9.31811C86.3731 9.55921 86.3818 9.76606 86.3317 10.0408C86.1945 10.2519 86.11 10.3027 85.8671 10.3635C85.5234 10.2907 85.3399 10.0749 85.0928 9.83433C83.189 8.00413 80.7504 6.79864 78.141 6.39286C78.0235 6.37169 78.0235 6.37169 77.9036 6.35011C75.6697 5.98738 73.4581 6.35534 71.7399 7.9071Z" fill="#010000"/>
<path d="M86.9512 12.0369C87.0417 12.1566 87.0417 12.1566 87.1327 12.3138C87.1834 12.4012 87.1834 12.4012 87.2351 12.4905C87.2706 12.5537 87.3061 12.617 87.3427 12.6821C87.3793 12.7469 87.4159 12.8118 87.4537 12.8785C89.038 15.7354 89.5899 19.1832 88.6991 22.357C88.6817 22.4152 88.6643 22.4734 88.6463 22.5334C88.4994 23.1182 88.6178 23.5558 88.8615 24.0936C89.1527 24.7554 89.2036 25.5372 88.9472 26.2157C88.9105 26.1917 88.8738 26.1676 88.8359 26.1429C88.4359 25.8986 88.1067 25.8135 87.6395 25.8028C87.7303 25.78 87.8212 25.7573 87.9148 25.7339C87.9016 24.968 87.7792 24.2057 87.4233 23.5171C87.2309 23.1157 87.388 22.6284 87.512 22.2282C87.6839 21.6094 87.744 20.9964 87.7857 20.3566C87.7917 20.2711 87.7976 20.1856 87.8038 20.0974C87.8182 19.8885 87.8323 19.6795 87.846 19.4704C87.7934 19.5038 87.7409 19.5372 87.6868 19.5715C87.4607 19.7004 87.3452 19.7197 87.0888 19.6769C86.8996 19.5135 86.8996 19.5135 86.7447 19.3328C86.6766 19.2646 86.6766 19.2646 86.607 19.1951C86.471 19.1916 86.471 19.1916 86.3317 19.264C86.2389 19.3778 86.1472 19.4926 86.0564 19.6081C85.7725 19.8241 85.5608 19.8374 85.2089 19.8275C85.1226 19.8256 85.0363 19.8238 84.9473 19.8219C84.8818 19.8195 84.8162 19.8171 84.7486 19.8146C84.7469 19.8603 84.7451 19.906 84.7433 19.9531C84.7249 20.2397 84.7019 20.4588 84.5723 20.718C84.3777 20.8676 84.2349 20.8984 83.9896 20.8782C83.8539 20.847 83.8539 20.847 83.6474 20.7352C83.4216 20.3542 83.4498 19.9699 83.5097 19.5393C83.5887 19.3152 83.6916 19.1609 83.8539 18.9886C83.8848 18.9541 83.9158 18.9196 83.9477 18.8841C84.2218 18.6383 84.492 18.6165 84.8519 18.58C85.2505 18.5394 85.4825 18.4919 85.7539 18.1928C85.9537 17.9869 86.1627 17.9339 86.4436 17.9261C86.8461 17.9344 87.1749 18.068 87.5018 18.3003C87.5973 18.412 87.69 18.5262 87.7771 18.6445C87.8404 17.6885 87.6552 16.8172 87.433 15.8913C87.4201 15.8354 87.4073 15.7795 87.394 15.7218C87.1581 14.7071 86.7719 13.6887 86.2403 12.791C86.1252 12.5875 86.1252 12.5875 86.1467 12.4412C86.6123 11.9239 86.6123 11.9239 86.9512 12.0369Z" fill="#273491"/>
<path d="M77.3839 24.2197C77.9221 24.5849 78.3133 25.1051 78.4852 25.7339C78.565 26.5175 78.4317 27.1773 77.9345 27.7988C77.4049 28.3477 76.9174 28.582 76.1579 28.599C75.4661 28.595 74.9381 28.3813 74.4242 27.9107C73.9267 27.3623 73.7696 26.7021 73.784 25.977C73.8431 25.2832 74.1982 24.8221 74.6995 24.3573C74.8597 24.2359 74.9948 24.1668 75.1813 24.082C75.222 24.0617 75.2626 24.0414 75.3045 24.0205C76.0131 23.7011 76.727 23.8521 77.3839 24.2197Z" fill="#030101"/>
<path d="M77.2247 10.0107C77.8853 10.4022 78.2429 10.8972 78.4852 11.6239C78.5508 12.4415 78.4585 13.0783 77.9216 13.7146C77.4056 14.2476 76.8283 14.5003 76.0933 14.5449C75.4794 14.5298 74.9146 14.2431 74.4758 13.8235C73.9393 13.2235 73.7691 12.6849 73.784 11.8823C73.8398 11.1866 74.1815 10.7021 74.6995 10.2473C75.4234 9.70575 76.407 9.6301 77.2247 10.0107Z" fill="#010103"/>
<path d="M72.497 4.25916C73.3682 4.20611 73.3682 4.20611 73.6929 4.39252C73.8391 4.66808 73.8933 4.91844 73.8047 5.22277C73.5674 5.51346 73.3254 5.64595 72.9831 5.79061C72.0785 6.19276 71.3375 6.72735 70.6386 7.42531C70.5784 7.48476 70.5181 7.54421 70.456 7.60545C69.1802 8.93047 68.5329 10.7515 68.564 12.5741C68.6206 14.5696 69.5041 16.4097 70.9292 17.7898C71.4326 18.228 71.9834 18.5957 72.5658 18.9198C72.1306 19.0649 71.6004 18.7131 71.2003 18.5181C70.6641 18.2474 70.1969 17.9407 69.7438 17.5432C69.6669 17.4811 69.6669 17.4811 69.5884 17.4177C68.4561 16.4768 67.8234 15.1599 67.4724 13.7576C67.4556 13.7023 67.4387 13.6471 67.4214 13.5901C67.0171 12.1695 67.4818 10.4703 68.1607 9.21488C68.851 7.99958 69.9231 6.97117 71.2027 6.39986C71.28 6.365 71.28 6.365 71.359 6.32944C71.461 6.28406 71.5635 6.23983 71.6666 6.19699C72.0313 6.03606 72.2748 5.83155 72.497 5.49809C72.5709 5.27626 72.575 5.1116 72.5744 4.87862C72.5746 4.80622 72.5748 4.73382 72.575 4.65923C72.5743 4.46005 72.5743 4.46005 72.497 4.25916Z" fill="#D64214"/>
<path d="M77.7969 19.9523C79.2995 20.2528 80.6513 21.2459 81.5136 22.499C82.3801 23.8593 82.8251 25.3375 82.5332 26.9471C82.2753 28.0888 81.8173 29.1257 81.0318 30.0014C80.9759 30.0637 80.92 30.1261 80.8625 30.1904C80.0214 31.0796 78.9872 31.6454 77.7969 31.9286C77.959 31.75 78.1311 31.6411 78.3389 31.5199C79.7624 30.623 80.7295 29.2055 81.1695 27.5923C81.19 27.52 81.2105 27.4477 81.2316 27.3732C81.6559 25.6821 81.2448 23.9783 80.3937 22.4901C79.7522 21.4239 78.8564 20.6569 77.7969 20.0211C77.7969 19.9984 77.7969 19.9757 77.7969 19.9523Z" fill="#D54214"/>
<path d="M86.0779 26.3319C86.3409 26.3542 86.4654 26.4068 86.6759 26.5599C86.4175 26.9217 86.1381 27.2582 85.8456 27.5923C83.9953 29.7134 82.5735 31.881 82.5902 34.7921C82.5855 35.1094 82.5817 35.2547 82.3837 35.5136C82.2019 35.6454 82.2019 35.6454 82.0041 35.7056C81.7071 35.6225 81.5705 35.5055 81.3916 35.2553C81.1961 34.7243 81.3576 34.1249 81.4448 33.5805C81.4592 33.4754 81.4734 33.3703 81.4873 33.2651C81.7707 31.2786 82.9423 29.7336 84.2312 28.2624C84.4106 28.0573 84.5883 27.8507 84.7658 27.644C84.8001 27.6041 84.8344 27.5642 84.8697 27.5231C85.1226 27.2279 85.3674 26.927 85.6074 26.6212C85.821 26.3561 85.821 26.3561 86.0779 26.3319Z" fill="#273491"/>
<path d="M72.3464 21.4837C72.7463 21.5778 72.9962 21.8461 73.228 22.1758C73.4654 22.5967 73.5509 22.9849 73.4606 23.4626C73.2766 24.0024 73.0191 24.4415 72.497 24.7015C72.2561 24.7617 72.2561 24.7617 72.084 24.7703C72.0872 24.8128 72.0904 24.8553 72.0937 24.8991C72.1157 25.4165 72.0395 25.8251 71.6823 26.2165C71.1891 26.6672 70.7845 26.8056 70.1173 26.7908C69.7309 26.7507 69.4776 26.624 69.1932 26.3663C69.0892 26.1388 69.0897 25.9808 69.1243 25.7339C69.2706 25.5317 69.2706 25.5317 69.4685 25.3898C69.7536 25.3499 69.8458 25.366 70.088 25.5274C70.3431 25.5553 70.5063 25.5625 70.7332 25.4371C70.8576 25.2313 70.8624 25.1272 70.8752 24.8908C70.8983 24.4972 70.9974 24.2408 71.2581 23.9444C71.4702 23.7728 71.6345 23.6803 71.8947 23.6002C72.0861 23.5482 72.0861 23.5482 72.183 23.4152C72.2411 23.1763 72.2144 23.0122 72.1528 22.7743C72.0946 22.7061 72.0364 22.638 71.9765 22.5678C71.8087 22.3613 71.8087 22.3613 71.7657 22.1161C71.8311 21.756 71.9907 21.5786 72.3464 21.4837Z" fill="#040100"/>
<path d="M82.8349 11.8188C82.9679 11.9049 83.0665 11.9817 83.1656 12.1057C83.2177 12.575 83.2177 12.575 83.058 12.8241C82.8384 12.9649 82.6677 12.9911 82.4084 13.0005C82.3403 12.9551 82.2722 12.9096 82.202 12.8628C82.0677 12.8386 82.0677 12.8386 81.9266 12.8413C81.8564 12.8396 81.8564 12.8396 81.7847 12.8378C81.6053 12.8715 81.5487 12.9195 81.4448 13.0693C81.4177 13.255 81.4177 13.255 81.419 13.4608C81.3934 13.8676 81.3142 14.1461 81.0319 14.4459C80.8751 14.5646 80.7307 14.6356 80.55 14.7212C80.2574 14.8391 80.2574 14.8391 80.0682 15.0654C80.0279 15.2572 80.0279 15.2572 80.0682 15.4784C80.1605 15.5969 80.1605 15.5969 80.2747 15.7107C80.4422 15.8896 80.5141 16.001 80.5242 16.2484C80.4812 16.5108 80.4812 16.5108 80.3737 16.6786C80.1376 16.8299 80.0069 16.8691 79.7241 16.8549C79.2717 16.6004 78.9828 16.173 78.8293 15.6848C78.7631 15.2219 78.8117 14.8541 79.0358 14.4459C79.0727 14.3764 79.1096 14.3068 79.1476 14.2351C79.407 13.9144 79.7451 13.6818 80.1371 13.5511C80.1422 13.4929 80.1474 13.4347 80.1527 13.3748C80.2245 12.7551 80.3565 12.3912 80.8299 11.9831C81.4309 11.5138 82.1481 11.4806 82.8349 11.8188Z" fill="#010103"/>
<path d="M69.6798 20.1891C69.9647 20.2716 70.0853 20.5258 70.2331 20.7632C70.3869 21.1462 70.353 21.6564 70.2495 22.0505C70.0502 22.4919 69.6979 22.7919 69.2534 22.9722C69.0448 23.0416 68.8638 23.0704 68.6425 23.0496C68.6255 23.122 68.6085 23.1944 68.5909 23.269C68.4656 23.7006 68.1992 23.9289 67.8166 24.1509C67.4221 24.3302 66.9838 24.3647 66.5656 24.2461C66.192 24.0821 65.8897 23.815 65.6829 23.4626C65.6686 23.1777 65.7067 23.0482 65.8636 22.813C66.0971 22.6594 66.2342 22.6628 66.5088 22.7055C66.6196 22.7832 66.6196 22.7832 66.7239 22.8775C66.9028 23.0613 66.9028 23.0613 67.1068 23.0883C67.2704 23.0626 67.2704 23.0626 67.3735 22.9464C67.4582 22.7991 67.5296 22.6526 67.6015 22.499C67.7464 22.1997 67.9309 22.0289 68.2296 21.8795C68.3856 21.8609 68.5416 21.8489 68.6982 21.8368C68.8686 21.8178 68.8686 21.8178 69.0555 21.673C69.0837 21.369 69.0593 21.1812 68.9179 20.9159C68.8877 20.7481 68.8877 20.7481 68.9179 20.5717C69.1329 20.2694 69.3175 20.1666 69.6798 20.1891Z" fill="#040100"/>
<path d="M85.8671 14.2437C86.1751 14.4164 86.4432 14.6076 86.607 14.9277C86.6224 15.2307 86.5902 15.3515 86.3876 15.5773C86.1537 15.7072 86.0446 15.7332 85.7811 15.6848C85.6423 15.5715 85.5045 15.4568 85.3681 15.3407C85.1871 15.2947 85.1871 15.2947 85.0239 15.3407C84.7986 15.5257 84.7288 15.7451 84.6287 16.0115C84.4715 16.2932 84.2761 16.418 83.9711 16.5116C83.8926 16.5269 83.8142 16.5423 83.7334 16.5581C83.4621 16.5917 83.4621 16.5917 83.2344 16.7173C83.2111 17.0839 83.2111 17.0839 83.372 17.4056C83.3626 17.6649 83.3364 17.8355 83.1957 18.0551C83.0009 18.18 82.8439 18.2101 82.6125 18.1984C82.3633 18.1326 82.2666 17.9578 82.1331 17.7497C81.9304 17.3315 81.9456 16.8966 81.9954 16.4419C82.1704 15.9583 82.5473 15.6535 82.9935 15.4224C83.2298 15.3422 83.4002 15.3226 83.6474 15.3407C83.6537 15.2704 83.6537 15.2704 83.6603 15.1987C83.7885 14.7352 84.077 14.4738 84.4824 14.2356C84.9343 14.0069 85.4143 14.0348 85.8671 14.2437Z" fill="#010103"/>
<path d="M68.436 17.5432C68.6425 17.6594 68.6425 17.6594 68.7802 17.8874C68.8486 18.3439 68.8461 18.8127 68.5987 19.2148C68.3434 19.536 68.1197 19.7182 67.7058 19.7872C67.5248 19.8054 67.3438 19.8232 67.1627 19.8404C66.8669 19.8932 66.7393 19.9891 66.536 20.2002C66.3183 20.4184 66.0287 20.4448 65.7345 20.4685C65.3293 20.4575 65.0273 20.2734 64.7193 20.0211C64.481 19.7619 64.3767 19.567 64.3708 19.2124C64.4521 18.9638 64.5007 18.8571 64.7193 18.7133C64.9559 18.6746 64.9559 18.6746 65.2011 18.7133C65.3946 18.8768 65.3946 18.8768 65.5452 19.0575C65.5906 19.1029 65.6361 19.1483 65.6829 19.1951C65.8189 19.1986 65.8189 19.1986 65.9582 19.1263C66.051 19.0125 66.1427 18.8977 66.2335 18.7822C66.5174 18.5662 66.7291 18.5529 67.081 18.5628C67.1673 18.5646 67.2536 18.5665 67.3426 18.5684C67.4081 18.5708 67.4737 18.5732 67.5413 18.5757C67.5439 18.4985 67.5439 18.4985 67.5466 18.4197C67.5781 17.8736 67.5781 17.8736 67.7176 17.6336C67.9593 17.5035 68.1724 17.4869 68.436 17.5432Z" fill="#040100"/>
<path d="M86.9993 18.0164C87.3774 18.1883 87.688 18.3849 87.846 18.7822C87.8902 18.9999 87.8978 19.1849 87.846 19.4016C87.6713 19.6123 87.5626 19.6656 87.2953 19.7157C87.0206 19.6641 86.9237 19.5417 86.7447 19.3328C86.6993 19.2874 86.6538 19.2419 86.607 19.1951C86.471 19.1916 86.471 19.1916 86.3317 19.264C86.2389 19.3778 86.1472 19.4926 86.0564 19.6081C85.7725 19.8241 85.5608 19.8374 85.2089 19.8275C85.0794 19.8247 85.0794 19.8247 84.9473 19.8219C84.8818 19.8195 84.8162 19.8171 84.7486 19.8146C84.7469 19.8603 84.7451 19.906 84.7433 19.9531C84.7249 20.2398 84.7019 20.4588 84.5723 20.718C84.3777 20.8676 84.2349 20.8984 83.9896 20.8782C83.8539 20.8471 83.8539 20.8471 83.6474 20.7352C83.4216 20.3542 83.4498 19.9699 83.5097 19.5393C83.5887 19.3152 83.6916 19.1609 83.8539 18.9887C83.8848 18.9541 83.9158 18.9196 83.9477 18.8841C84.2218 18.6383 84.492 18.6165 84.8519 18.58C85.2505 18.5394 85.4825 18.4919 85.7539 18.1928C86.084 17.8526 86.5765 17.8794 86.9993 18.0164Z" fill="#000102"/>
<path d="M76.6354 25.1575C76.9465 25.3267 77.1555 25.5525 77.315 25.8716C77.3729 26.316 77.3267 26.632 77.065 26.9987C76.8523 27.2515 76.6503 27.3704 76.3178 27.4022C76.0093 27.4104 75.7848 27.4093 75.4997 27.2826C75.1666 26.9654 74.9567 26.6784 74.9361 26.2071C74.9587 25.7988 75.1216 25.5743 75.4222 25.3038C75.8271 25.0203 76.1657 24.9448 76.6354 25.1575Z" fill="#F0F0F0"/>
<path d="M76.4891 11.0044C76.8529 11.1257 77.0288 11.3195 77.2462 11.6239C77.3824 11.9487 77.3396 12.3021 77.2376 12.6305C77.0574 12.9549 76.8573 13.1199 76.5278 13.2973C76.242 13.374 76.003 13.4051 75.7261 13.2796C75.4063 13.0906 75.1342 12.8826 74.9921 12.5273C74.9419 12.1012 74.9702 11.7974 75.1813 11.4174C75.5872 10.9975 75.9253 10.9613 76.4891 11.0044Z" fill="#F1F1F1"/>
<path d="M87.433 9.35254C88.5351 9.57671 89.4719 10.1417 90.255 10.9356C90.1554 10.9493 90.1554 10.9493 90.0539 10.9633C89.9669 10.9755 89.88 10.9876 89.7904 11.0001C89.7042 11.0121 89.6179 11.0241 89.5291 11.0364C89.3533 11.0637 89.1869 11.0942 89.0161 11.1421C89.026 11.0853 89.0359 11.0285 89.0462 10.97C89.0001 10.6013 88.8058 10.4214 88.5343 10.1785C88.3092 10.0071 88.0749 9.85042 87.8384 9.69534C87.6826 9.58857 87.5581 9.49215 87.433 9.35254Z" fill="#26338E"/>
<path d="M80.1371 6.94351C80.5987 7.03149 80.9976 7.16795 81.4233 7.36509C81.5129 7.40605 81.5129 7.40605 81.6043 7.44784C82.2948 7.76845 82.9779 8.12352 83.5785 8.59542C83.5785 8.61813 83.5785 8.64085 83.5785 8.66425C83.3415 8.7361 83.1372 8.76084 82.8902 8.73308C82.6744 8.60924 82.4953 8.46145 82.3036 8.30289C82.0315 8.08021 81.7367 7.89948 81.4362 7.71784C81.3564 7.66952 81.3564 7.66952 81.2751 7.62023C80.9048 7.39863 80.5301 7.1911 80.1371 7.01234C80.1371 6.98963 80.1371 6.96691 80.1371 6.94351Z" fill="#27348F"/>
<path d="M70.3332 2.7363C70.7645 2.87746 70.9132 3.26226 71.1204 3.63968C70.5871 3.68979 70.2555 3.59507 69.8126 3.29554C69.8126 3.40911 69.8126 3.52267 69.8126 3.63968C69.7899 3.63968 69.7672 3.63968 69.7438 3.63968C69.7024 3.15059 69.7024 3.15059 69.8858 2.87826C70.088 2.7449 70.088 2.7449 70.3332 2.7363Z" fill="#D14114"/>
<path d="M55.3357 32.4503L46.9692 34.1913L47.9848 14.605H35.7978V22.2944C35.7978 23.2939 36.1363 24.1483 36.8134 24.8576C37.5227 25.5669 38.377 25.9215 39.3765 25.9215H44.1643V32.3536H38.2642C35.7817 32.3536 33.6538 31.4831 31.8805 29.7421C30.1395 27.9688 29.269 25.8409 29.269 23.3584V8.07628H48.3233L48.3717 6.43201H53.6914L55.3357 32.4503Z" fill="black"/>
<path d="M8.9468 34.288L10.0107 8.26975H0V1.88608L10.3009 1.20903L10.3493 0.193445H15.669V0.82214L27.6142 0V8.17303L16.0559 8.22139L17.2649 32.4987L8.9468 34.288Z" fill="black"/>
</svg>
